PathFileType	4	(X/Y/Z)	C:\Users\Basilio\Documents\Thesis Gigler\squatting_fais\c3dfiles\019\SLS_back_pre4\markers_experimental.trc
DataRate	CameraRate	NumFrames	NumMarkers	Units	OrigDataRate	OrigDataStartFrame	OrigNumFrames
200.000000	200.000000	4	59	mm	200.000000	523	1397
Frame#	Time	FHD			LBHD			RBHD			C7			T10			CLAV			LSHO			LUUPA			LMUPA			LDUPA			LLEP			LMEP			LRAD			LUL			LRFIN			RSHO			RUPA1			RMUPA			RDUPA			RLEP			RMEP			RRAD			RUL			RUFIN			LASI			RASI			USACR			LSACR			RSACR			LTHI1			LTHI2			LTHI3			LTHI4			LLFC			LTIB1			LTIB2			LTIB3			LTIB4			LLMAL			LMMAL			LHEE			LMT1			LMT2			LMT5			RTHI2			RTHI4			RLFC			RTIB1			RTIB2			RTIB3			RTIB4			RLMAL			RMMAL			RHEE			RMT1			RMT2			RMT5			RTHI3			RTHI			
		X1	Y1	Z1	X2	Y2	Z2	X3	Y3	Z3	X4	Y4	Z4	X5	Y5	Z5	X6	Y6	Z6	X7	Y7	Z7	X8	Y8	Z8	X9	Y9	Z9	X10	Y10	Z10	X11	Y11	Z11	X12	Y12	Z12	X13	Y13	Z13	X14	Y14	Z14	X15	Y15	Z15	X16	Y16	Z16	X17	Y17	Z17	X18	Y18	Z18	X19	Y19	Z19	X20	Y20	Z20	X21	Y21	Z21	X22	Y22	Z22	X23	Y23	Z23	X24	Y24	Z24	X25	Y25	Z25	X26	Y26	Z26	X27	Y27	Z27	X28	Y28	Z28	X29	Y29	Z29	X30	Y30	Z30	X31	Y31	Z31	X32	Y32	Z32	X33	Y33	Z33	X34	Y34	Z34	X35	Y35	Z35	X36	Y36	Z36	X37	Y37	Z37	X38	Y38	Z38	X39	Y39	Z39	X40	Y40	Z40	X41	Y41	Z41	X42	Y42	Z42	X43	Y43	Z43	X44	Y44	Z44	X45	Y45	Z45	X46	Y46	Z46	X47	Y47	Z47	X48	Y48	Z48	X49	Y49	Z49	X50	Y50	Z50	X51	Y51	Z51	X52	Y52	Z52	X53	Y53	Z53	X54	Y54	Z54	X55	Y55	Z55	X56	Y56	Z56	X57	Y57	Z57	X58	Y58	Z58	X59	Y59	Z59	

524	2.615	-157.7953491210938	1618.546508789063	-655.3880004882814	-288.2346191406251	1593.102172851563	-797.899597167969	-291.9892883300782	1588.950561523438	-658.0503540039064	-342.2010498046876	1432.609375	-715.8848266601564	-440.1434631347657	1161.065063476563	-717.9820556640626	-210.4910736083985	1362.391967773438	-720.6317138671876	-259.5193481445313	1423.830444335938	-853.3992309570315	-141.6318511962891	1371.329956054688	-910.1695556640627	-115.8400192260742	1367.175170898438	-868.4517211914065	-76.10915374755861	1356.624877929688	-913.1810302734377	-12.2710247039795	1307.79443359375	-939.5007324218752	-22.57634353637696	1254.734375	-914.922058105469	228.1019897460938	1315.692993164063	-858.4043579101565	232.0035400390626	1267.038208007813	-902.329772949219	302.7125244140626	1327.434692382813	-861.6723632812502	-246.518295288086	1415.067504882813	-591.9870605468751	-140.5088043212891	1312.244018554688	-498.4562377929689	-110.5866088867188	1339.235107421875	-531.5648193359376	-76.12075042724611	1295.66015625	-507.9977111816407	-1.62708067893982	1275.5029296875	-523.8929443359376	-20.91112518310547	1226.822021484375	-545.9724731445314	237.804183959961	1292.127563476563	-603.3786621093751	247.1016693115235	1242.1455078125	-562.7449340820314	321.1931762695313	1296.726318359375	-595.9237670898439	-344.7554016113282	929.4508056640627	-846.6780395507815	-325.8736572265626	922.5132446289065	-641.9006958007814	-476.9513244628907	1029.439331054688	-727.2541503906251	-490.6073303222657	999.9470214843752	-754.8072509765626	-484.7503662109376	999.2200317382815	-696.9511718750001	-394.6089477539064	682.6286621093751	-930.017028808594	-347.1847229003907	612.0985717773439	-938.0977172851565	-301.3622741699219	620.0558471679689	-923.7705688476565	-364.9707031250001	553.7008056640626	-929.6868896484377	-368.3193359375001	470.5077514648439	-913.809265136719	-449.2184448242189	358.7043457031251	-871.0054931640627	-517.7351684570314	399.369110107422	-919.967712402344	-504.9985351562501	365.3432312011719	-896.6770629882815	-575.3520507812501	338.7471618652344	-851.638854980469	-725.0512084960939	364.2345886230469	-861.9544677734377	-698.0078125000001	352.4324645996094	-779.7845458984377	-774.2399902343752	411.6063537597657	-805.716979980469	-726.5979614257814	205.2586364746094	-783.3559570312502	-734.4105834960939	199.3391571044922	-821.843200683594	-777.679138183594	230.2214508056641	-867.0012817382815	-275.9730224609376	711.7062377929689	-589.7146606445314	-264.1082458496094	628.9645996093751	-594.4279785156251	-244.286117553711	477.894256591797	-645.4390869140626	-244.7910614013672	305.0981445312501	-722.8856811523439	-312.2282104492188	235.0404815673829	-669.3587646484376	-283.6760253906251	228.6785736083985	-706.7896728515626	-307.1936035156251	197.0548858642579	-749.9356689453126	-384.6660461425782	126.060302734375	-705.8980712890626	-369.3026733398438	134.7153015136719	-782.774353027344	-455.4831848144532	105.0594635009766	-759.7371215820314	-257.3619689941407	56.08765411376955	-787.7888793945315	-252.6665954589844	59.05699157714845	-742.0325927734376	-292.1763916015626	48.09060668945314	-687.1998291015626	-258.0474243164063	726.2399291992189	-612.4750976562501	-333.4133605957032	738.8344116210939	-573.2237548828126	
525	2.62	-157.3694915771485	1617.725463867188	-655.5162353515626	-287.6522827148438	1592.201171875	-797.848571777344	-291.5444946289063	1588.0498046875	-658.0681152343751	-342.0342712402344	1431.987426757813	-715.9572753906251	-440.0136718750001	1160.40576171875	-717.9713134765626	-210.1834259033204	1361.380981445313	-720.6166381835939	-258.7547302246094	1423.182739257813	-852.9358520507815	-141.1905670166016	1370.50634765625	-910.1326293945315	-115.3550186157227	1366.316162109375	-868.4608154296877	-75.7520217895508	1355.826538085938	-913.1362915039065	-11.78232574462891	1307.0068359375	-939.555847167969	-22.17027854919434	1253.929077148438	-914.9439697265627	228.9539642333985	1314.806518554688	-858.332702636719	232.4112243652344	1266.317626953125	-902.3184814453127	303.0468750000001	1326.643798828125	-861.6320800781252	-246.2000274658204	1414.485717773438	-591.9289550781251	-140.2156219482422	1311.392456054688	-498.5859985351564	-110.5480194091797	1338.83837890625	-531.5386352539064	-75.8428192138672	1294.895263671875	-508.0281982421876	-1.306915044784546	1274.681518554688	-523.6267700195314	-20.61099243164063	1226.129516601563	-545.7442626953126	238.0837554931641	1291.056884765625	-603.2751464843751	247.5159759521485	1241.2939453125	-562.7330322265626	321.5312500000001	1295.827758789063	-596.2199096679689	-344.9595031738282	928.6937255859377	-846.6926879882815	-326.1249084472657	921.761413574219	-641.8357543945314	-476.8384704589845	1028.903686523438	-727.3293457031251	-490.8611755371095	999.3171997070315	-754.7737426757814	-485.017547607422	998.5386962890627	-696.9633789062501	-394.9719238281251	682.0437011718751	-930.018005371094	-347.3643798828126	611.3258666992189	-937.951843261719	-301.6652221679688	619.3496093750001	-923.5352172851565	-365.2805786132813	553.0645751953126	-929.5539550781252	-368.8357849121094	469.9266662597657	-913.7812500000002	-450.0088806152345	357.7756042480469	-871.5992431640627	-518.0144653320314	398.737274169922	-920.0230712890627	-505.3609924316407	364.6529235839844	-896.630310058594	-575.8706054687501	338.2978515625001	-851.6005859375002	-725.4337768554689	363.8049011230469	-862.165710449219	-698.6052246093751	352.0184020996094	-779.9321289062502	-774.6833496093752	411.3581848144532	-805.9825439453127	-727.3571166992189	204.9314575195313	-783.511901855469	-735.0988159179689	198.9825134277344	-822.0506591796877	-778.2253417968752	229.861068725586	-867.191833496094	-275.9662780761719	711.3067016601564	-589.6699829101564	-263.8968200683594	628.5111694335939	-594.4145507812501	-243.9260864257813	477.6937255859376	-645.5479125976564	-244.4490051269532	304.9762878417969	-723.0693969726564	-311.9396972656251	234.9072570800782	-669.5324707031251	-283.4827880859376	228.541244506836	-707.0264892578126	-307.0673828125001	196.9798583984376	-750.0900878906251	-384.5488281250001	126.007682800293	-705.9569091796876	-369.3258666992188	134.6760406494141	-782.8882446289065	-455.4741821289064	105.1069259643555	-759.7597045898439	-257.3651428222657	56.04055404663087	-787.7984619140627	-252.6681365966797	59.05440521240236	-742.0719604492189	-292.1147155761719	48.03232574462892	-687.1939086914064	-257.2168273925782	726.6629638671876	-612.3803710937501	-333.5305480957032	738.3177490234376	-573.2592773437501	
526	2.625	-156.8649444580078	1616.788818359375	-655.5310058593751	-287.5608825683594	1591.372314453125	-797.9838867187502	-291.0380249023438	1587.120483398438	-658.1277465820314	-341.6224060058594	1431.255493164063	-716.0364379882814	-439.9141845703126	1159.745239257813	-717.9454956054689	-209.7822265625001	1360.48876953125	-720.5540771484376	-258.6553039550782	1422.185668945313	-853.328308105469	-140.8071899414063	1369.70947265625	-910.161315917969	-115.0858840942383	1365.437133789063	-868.469909667969	-75.41305541992189	1355.081420898438	-913.150329589844	-11.37125205993653	1306.2763671875	-939.5357055664065	-21.74671173095703	1253.181518554688	-914.8989868164065	229.360824584961	1314.141723632813	-858.2942504882815	232.7810058593751	1265.542602539063	-902.3249511718752	304.3158264160157	1325.6123046875	-861.4163818359377	-245.9685211181641	1413.720825195313	-592.0062255859376	-140.1488647460938	1310.099243164063	-500.316864013672	-110.2704391479492	1337.96923828125	-531.5556640625001	-74.24316406250001	1294.587890625	-507.4573364257814	-0.9908915162086489	1273.929931640625	-523.3056030273439	-20.33598327636719	1225.226928710938	-545.8204345703126	238.4450378417969	1290.15185546875	-603.2937622070314	247.8894653320313	1240.373901367188	-562.6309204101564	324.9317626953126	1294.08447265625	-596.4511108398439	-345.1177368164063	927.921081542969	-846.6436767578127	-326.3856201171876	921.015808105469	-641.7460327148439	-477.1038513183595	1028.2177734375	-727.2055664062501	-491.2605285644532	998.8658447265627	-754.6998291015626	-485.388885498047	997.9556274414065	-696.9043579101564	-395.1295776367189	681.2318725585939	-929.8967895507815	-347.2742004394532	610.2451782226564	-937.5076293945315	-301.7759399414063	618.4792480468751	-923.3311767578127	-365.6114807128907	552.4328002929689	-929.463562011719	-369.1930236816407	469.4315795898439	-913.0935668945315	-450.3720092773439	357.0470886230469	-871.6065673828127	-518.4494628906251	398.1562805175782	-920.1090087890627	-505.778289794922	364.0650634765626	-896.6463012695315	-576.2284545898439	337.6993408203126	-851.624694824219	-725.8703002929689	363.4343566894532	-862.3858642578127	-699.2356567382814	351.7365417480469	-780.1614379882815	-775.0982666015627	411.0096435546876	-806.1994628906252	-728.1038208007814	204.5687103271485	-783.701354980469	-735.8817749023439	198.7231750488282	-822.1665649414065	-779.3137207031252	229.8022766113282	-867.6370849609377	-276.0363769531251	710.9546508789064	-589.7268066406251	-263.7200012207032	628.1987304687501	-594.5033569335939	-243.4538116455079	477.5289916992189	-645.7024536132814	-244.1766662597657	304.6978454589844	-723.3112792968751	-311.6159973144532	234.7469940185547	-669.6473388671876	-283.1702880859376	228.418441772461	-707.2266235351564	-306.8869934082032	196.8679962158204	-750.3044433593751	-384.4606323242189	126.0044326782227	-705.9892578125001	-369.3158264160157	134.6400451660157	-782.995300292969	-455.5664672851564	105.1576766967774	-759.8078613281251	-257.3630676269532	55.94775009155275	-787.7920532226565	-252.6694641113282	59.09595489501955	-742.1022338867189	-292.0687561035157	48.06554031372072	-687.2452392578126	-257.7791442871094	726.2008666992189	-612.5070800781251	-333.6673583984376	737.8386230468751	-573.2719726562501	
527	2.63	-156.4407958984375	1615.582641601563	-655.4193115234376	-287.1128540039063	1590.524291992188	-798.0129394531252	-290.6739196777344	1586.39794921875	-658.2077026367189	-341.1523132324219	1430.369995117188	-716.0482177734376	-439.9129028320314	1159.07275390625	-717.9837036132814	-209.4289703369141	1359.638916015625	-720.6344604492189	-258.3730468750001	1421.22998046875	-853.3676757812502	-140.4361724853516	1368.82421875	-910.1292724609377	-114.699951171875	1364.591918945313	-868.3785400390627	-75.12314605712892	1354.2861328125	-913.1077880859377	-10.97785758972168	1305.537841796875	-939.5401611328127	-21.33788490295411	1252.400634765625	-914.9500122070315	229.8492126464844	1313.503051757813	-858.3477172851565	233.2138977050782	1264.800537109375	-902.3354492187502	304.6204833984376	1325.081665039063	-861.4306640625002	-245.6715545654297	1412.737182617188	-592.3012695312501	-139.8959350585938	1309.30419921875	-500.3197021484376	-110.1053924560547	1337.207763671875	-531.5842285156251	-74.05564880371095	1293.744018554688	-507.4910583496095	-0.6502633690834047	1273.062622070313	-523.4087524414064	-20.08916473388672	1224.449584960938	-545.8803710937501	238.9436798095704	1289.145385742188	-603.0611572265626	248.1331634521485	1239.626220703125	-562.6353759765626	322.6889343261719	1293.468383789063	-595.4591064453126	-345.4609069824219	927.2998657226565	-846.6299438476565	-326.6838378906251	920.3328247070315	-641.7645874023439	-477.0904846191407	1027.655639648438	-727.2957153320314	-491.0428161621095	998.2122802734377	-754.7568359375001	-485.5012207031251	997.399597167969	-696.9872436523439	-395.2069396972657	680.4528198242189	-929.7756958007815	-347.6581420898438	609.6275634765626	-937.396423339844	-302.0263977050782	617.7758789062501	-923.140319824219	-365.9501647949219	551.7932739257814	-929.385437011719	-369.3094787597657	468.4484252929689	-913.5389404296877	-450.8372802734376	356.3370971679688	-871.577819824219	-518.9741821289064	397.6647949218751	-920.1897583007815	-506.2092285156251	363.4625244140626	-896.6226806640627	-576.3296508789064	337.0182800292969	-851.0479125976565	-726.2025756835939	362.8889770507813	-862.5144042968752	-699.7797851562501	351.4184265136719	-780.3698730468752	-775.541198730469	410.6496582031251	-806.463806152344	-728.8312988281251	204.2624969482422	-783.8151855468752	-736.5203247070314	198.4193115234376	-822.3779907226565	-779.6651000976565	229.4619903564454	-867.6522216796877	-276.0931396484376	710.6252441406251	-589.8658447265626	-263.5203552246094	627.8380737304689	-594.5829467773439	-242.995834350586	477.3674621582032	-645.8945312500001	-243.9379577636719	304.4799194335938	-723.4983520507814	-311.3648986816407	234.6397399902344	-669.7159423828126	-282.9887084960938	228.3722076416016	-707.3877563476564	-306.7510986328126	196.7490386962891	-750.4378662109376	-384.4188537597657	126.0668487548828	-706.0828247070314	-369.2120666503907	134.5887298583985	-783.085388183594	-455.5662231445314	105.1720199584961	-759.7644653320314	-257.3735961914063	55.91485977172853	-787.8188476562502	-252.6676788330079	59.11625289916994	-742.0850830078126	-292.1971740722657	48.15538787841798	-687.1863403320314	-257.8897705078126	724.3417968750001	-612.7478027343751	-333.7160034179688	737.2049560546876	-573.2099609375001	
